<svg width="17" height="18" viewBox="0 0 17 18" fill="none" xmlns="http://www.w3.org/2000/svg">
<path d="M12.1428 14.0242H1.82143C0.81548 14.0242 0 13.2087 0 12.2027V1.88134C0 0.87539 0.81548 0.0599102 1.82143 0.0599102H12.1428C13.1488 0.0599102 13.9643 0.87539 13.9643 1.88134V12.2027C13.9643 13.2087 13.1488 14.0242 12.1428 14.0242Z" fill="white"/>
<path d="M15.1786 17.0599H4.25C3.2495 17.0599 2.43626 16.2529 2.42857 15.2524C2.42857 15.2476 2.42857 15.2433 2.42857 15.2384H12.1429C13.8186 15.2365 15.1766 13.8785 15.1786 12.2027V2.48846C15.1834 2.48846 15.1877 2.48846 15.1925 2.48846C16.1931 2.49614 17 3.30938 17 4.30988V15.2384C17 16.2444 16.1845 17.0599 15.1786 17.0599Z" fill="white"/>
</svg>
